<?xml version="1.0" standalone="no"?>
<!DOCTYPE svg PUBLIC "-//W3C//DTD SVG 20010904//EN"
 "http://www.w3.org/TR/2001/REC-SVG-20010904/DTD/svg10.dtd">
<svg version="1.0" xmlns="http://www.w3.org/2000/svg"
 width="500.000000pt" height="500.000000pt" viewBox="0 0 500.000000 500.000000"
 preserveAspectRatio="xMidYMid meet">
<metadata>
Created by potrace 1.16, written by Peter Selinger 2001-2019
</metadata>
<g transform="translate(0.000000,500.000000) scale(0.100000,-0.100000)"
fill="#000000" stroke="none">
<path d="M2300 4624 c-383 -46 -709 -163 -991 -355 -614 -419 -959 -1097 -936
-1839 6 -193 23 -308 67 -476 141 -531 486 -990 960 -1279 449 -273 996 -368
1520 -264 615 123 1140 509 1447 1064 258 466 330 1023 198 1546 -71 281 -190
531 -365 764 -284 377 -705 659 -1159 776 -189 49 -281 60 -501 64 -113 2
-221 1 -240 -1z m302 -1046 c44 -13 78 -49 78 -83 0 -25 -33 -59 -73 -74 -32
-12 -33 -9 14 -132 30 -77 74 -134 117 -150 33 -13 101 -10 145 5 52 19 140
74 194 121 43 38 44 41 33 67 -18 39 6 72 63 86 72 19 157 -16 157 -64 0 -23
-36 -52 -79 -64 -49 -13 -70 -48 -77 -124 -17 -186 220 -198 488 -23 41 27 45
33 36 53 -17 38 -2 71 38 84 47 16 129 8 154 -15 45 -41 3 -105 -69 -105 -20
0 -41 -4 -48 -8 -23 -15 -53 -97 -53 -147 0 -90 47 -125 171 -125 89 0 171 21
279 71 100 47 123 65 114 91 -3 11 -3 30 0 42 13 51 141 66 192 23 22 -19 26
-29 20 -51 -7 -29 -55 -56 -100 -56 -18 0 -67 -44 -203 -186 l-178 -185 -135
11 c-925 74 -1911 74 -2640 -1 l-105 -10 -156 154 c-141 138 -162 156 -214
173 -65 21 -81 39 -72 76 13 50 108 74 170 42 42 -22 49 -33 42 -70 -6 -34
-10 -32 145 -102 133 -60 270 -80 317 -47 38 27 47 76 28 160 -18 81 -19 83
-84 105 -52 18 -67 37 -57 74 19 77 216 68 216 -9 0 -14 -5 -34 -12 -44 -15
-24 6 -43 97 -93 55 -30 68 -33 146 -33 76 0 90 3 126 27 48 31 81 93 90 167
5 44 3 51 -13 57 -81 25 -101 45 -90 90 17 65 180 71 209 7 9 -20 8 -31 -7
-56 l-17 -31 38 -33 c49 -42 158 -99 204 -108 55 -10 112 10 150 52 37 43 85
141 94 195 6 32 4 37 -17 43 -36 11 -68 46 -68 75 0 65 107 107 202 78z m223
-933 c406 -6 497 -11 985 -44 283 -20 297 -22 350 -49 66 -33 108 -90 119
-162 22 -137 -52 -252 -180 -279 -32 -7 -261 -11 -654 -11 l-605 0 -2 -387 -3
-388 -60 0 -60 0 0 450 0 450 685 5 c524 4 690 8 707 18 35 20 53 53 53 98 0
52 -28 90 -78 104 -25 6 -518 10 -1468 10 -1587 0 -1469 5 -1606 -67 -85 -44
-137 -89 -182 -158 -102 -152 -119 -373 -43 -537 61 -132 171 -213 333 -243
115 -23 729 -21 805 1 166 49 294 155 364 302 13 28 26 52 28 52 2 0 27 -7 55
-15 37 -11 52 -21 52 -33 -1 -54 -100 -203 -187 -282 -69 -61 -230 -143 -318
-160 -42 -8 -170 -10 -425 -7 -409 4 -432 8 -576 77 -192 93 -304 292 -304
537 1 294 158 520 433 622 90 33 137 41 362 62 215 19 937 50 1010 42 11 -1
196 -5 410 -8z"/>
<path d="M2485 3041 c-16 -10 -41 -30 -54 -45 -20 -21 -22 -30 -14 -48 20 -44
95 -128 113 -128 26 0 132 119 128 144 -4 25 -95 96 -123 96 -11 0 -33 -8 -50
-19z"/>
<path d="M2019 2939 c-17 -24 -20 -36 -12 -48 17 -27 95 -82 112 -79 19 4 66
93 56 108 -10 17 -82 50 -109 50 -16 0 -32 -11 -47 -31z"/>
<path d="M2968 2944 c-27 -13 -48 -30 -48 -37 1 -19 37 -94 49 -102 17 -10
121 71 121 94 0 25 -38 71 -58 71 -9 -1 -38 -12 -64 -26z"/>
</g>
</svg>
