<?xml version="1.0" standalone="no"?>
<!DOCTYPE svg PUBLIC "-//W3C//DTD SVG 20010904//EN"
 "http://www.w3.org/TR/2001/REC-SVG-20010904/DTD/svg10.dtd">
<svg version="1.0" xmlns="http://www.w3.org/2000/svg"
 width="667.000000pt" height="667.000000pt" viewBox="0 0 667.000000 667.000000"
 preserveAspectRatio="xMidYMid meet">
<metadata>
Created by potrace 1.16, written by Peter Selinger 2001-2019
</metadata>
<g transform="translate(0.000000,667.000000) scale(0.100000,-0.100000)"
fill="#000000" stroke="none">
<path d="M3030 6165 c-8 -2 -62 -11 -120 -20 -324 -51 -678 -169 -935 -312
-519 -288 -924 -710 -1180 -1228 -160 -323 -250 -635 -284 -979 -14 -140 -14
-461 0 -602 33 -339 159 -741 330 -1050 139 -250 275 -431 484 -640 239 -240
465 -404 760 -549 527 -260 1126 -349 1708 -254 1039 169 1904 906 2236 1906
301 906 130 1896 -458 2653 -88 114 -312 342 -425 434 -355 288 -713 467
-1151 575 -214 53 -303 62 -640 66 -170 2 -317 2 -325 0z m457 -1402 c82 -29
109 -105 56 -155 -16 -14 -43 -33 -60 -42 -42 -21 -42 -35 1 -145 41 -106 71
-156 120 -199 46 -40 69 -46 160 -40 62 4 85 11 152 47 87 47 219 144 234 171
6 12 6 29 -1 50 -15 43 -1 72 48 95 52 26 136 24 189 -3 85 -43 69 -107 -36
-148 -85 -33 -113 -78 -114 -189 -1 -77 23 -122 84 -152 114 -58 341 -4 550
131 67 44 71 49 64 74 -13 46 -7 76 19 98 31 27 97 37 159 26 70 -14 98 -35
98 -76 0 -50 -41 -81 -119 -90 -54 -6 -62 -10 -80 -40 -31 -50 -54 -151 -46
-204 24 -164 290 -177 604 -31 47 22 100 51 118 65 30 23 33 28 27 64 -6 34
-3 43 23 68 52 52 174 55 233 6 33 -28 38 -58 15 -90 -15 -23 -45 -37 -115
-54 -41 -10 -69 -35 -281 -252 l-235 -240 -205 16 c-630 49 -1131 68 -1824 68
-690 0 -1044 -14 -1578 -64 l-229 -21 -51 50 c-29 27 -122 117 -208 200 -103
99 -171 157 -200 169 -129 56 -150 74 -134 121 13 36 84 73 140 73 44 0 112
-28 134 -53 9 -11 12 -30 8 -52 -8 -48 7 -60 160 -127 177 -77 229 -91 345
-92 93 -1 99 0 124 26 34 33 42 102 24 200 -14 81 -42 119 -98 136 -110 33
-125 117 -29 157 66 27 161 17 203 -22 27 -24 29 -49 9 -110 -10 -30 24 -60
128 -115 l82 -43 116 0 c109 0 118 2 156 27 74 49 118 130 130 237 l6 58 -47
18 c-71 27 -96 51 -96 89 0 43 32 72 94 86 80 18 163 -8 185 -58 10 -20 8 -32
-10 -69 l-21 -44 33 -30 c47 -41 158 -107 226 -135 145 -59 255 -4 338 171 32
69 55 136 55 165 0 8 -21 26 -46 39 -86 46 -94 125 -18 172 62 38 147 43 231
12z m208 -1233 c281 -5 607 -15 725 -20 304 -15 933 -59 1010 -71 178 -27 280
-142 280 -315 0 -124 -63 -230 -167 -281 -54 -26 -68 -28 -238 -34 -99 -4
-480 -8 -847 -8 l-668 -1 -2 -297 c0 -164 -2 -302 -3 -308 -2 -5 -3 -103 -4
-217 l-1 -208 -80 0 -80 0 0 600 0 600 383 1 c738 0 1441 15 1472 30 42 21 67
62 72 116 5 62 -20 110 -73 137 -39 21 -47 21 -1829 24 -1822 4 -2093 -1
-2188 -33 -91 -31 -211 -107 -282 -179 -80 -80 -140 -191 -171 -311 -24 -95
-24 -286 0 -375 65 -240 220 -381 477 -437 74 -16 138 -18 549 -18 524 0 527
1 676 76 149 74 264 189 341 342 l34 69 37 -7 c55 -10 101 -32 109 -50 9 -26
-71 -174 -145 -266 -85 -106 -156 -162 -290 -232 -198 -102 -188 -101 -575
-105 -381 -4 -731 10 -822 34 -33 8 -107 38 -165 66 -91 44 -116 62 -191 137
-72 72 -94 102 -132 181 -76 156 -104 312 -87 489 36 369 250 634 610 753 154
52 442 80 1105 108 138 6 277 12 310 13 144 7 374 6 850 -3z"/>
<path d="M3307 4049 c-54 -35 -87 -74 -87 -99 0 -36 131 -190 161 -190 16 0
134 126 151 160 21 42 12 57 -65 116 -71 53 -97 55 -160 13z"/>
<path d="M2701 3925 c-17 -20 -31 -42 -31 -49 0 -17 78 -89 120 -111 30 -15
33 -15 52 2 28 26 60 91 56 116 -2 15 -20 31 -57 50 -74 37 -102 35 -140 -8z"/>
<path d="M3977 3935 c-63 -31 -77 -43 -77 -67 0 -22 45 -114 60 -123 14 -9 88
36 129 78 38 41 38 66 -3 110 -30 33 -47 33 -109 2z"/>
</g>
</svg>
