<?xml version="1.0" standalone="no"?>
<!DOCTYPE svg PUBLIC "-//W3C//DTD SVG 20010904//EN"
 "http://www.w3.org/TR/2001/REC-SVG-20010904/DTD/svg10.dtd">
<svg version="1.0" xmlns="http://www.w3.org/2000/svg"
 width="400.000000pt" height="400.000000pt" viewBox="0 0 400.000000 400.000000"
 preserveAspectRatio="xMidYMid meet">
<metadata>
Created by potrace 1.16, written by Peter Selinger 2001-2019
</metadata>
<g transform="translate(0.000000,400.000000) scale(0.100000,-0.100000)"
fill="#000000" stroke="none">
<path d="M0 2000 l0 -2000 2000 0 2000 0 0 2000 0 2000 -2000 0 -2000 0 0
-2000z m2124 991 c46 -26 52 -57 17 -92 -16 -16 -38 -29 -49 -29 -10 0 -21 -3
-24 -6 -7 -6 45 -144 73 -194 70 -125 238 -101 426 61 27 23 30 29 17 39 -40
34 11 90 82 90 57 0 93 -18 101 -48 7 -31 -22 -58 -74 -68 -44 -8 -63 -48 -63
-131 0 -48 4 -63 25 -85 72 -78 246 -51 429 66 51 33 56 38 45 57 -26 49 17
89 95 89 41 0 96 -34 96 -60 0 -27 -55 -60 -101 -60 -34 0 -38 -3 -58 -49 -25
-60 -28 -137 -5 -170 54 -76 245 -65 428 25 96 48 113 61 98 76 -37 37 15 88
88 88 53 0 100 -28 100 -60 0 -25 -37 -49 -86 -57 -38 -6 -90 -55 -295 -277
l-64 -69 -95 6 c-771 49 -1102 61 -1520 54 -349 -5 -748 -26 -930 -47 -166
-19 -144 -29 -311 135 -126 123 -154 146 -192 156 -83 21 -99 71 -33 103 46
22 84 20 125 -5 30 -18 33 -24 28 -54 -6 -34 -5 -35 56 -63 124 -58 141 -64
206 -83 112 -32 179 -22 207 32 19 38 18 75 -6 153 -16 50 -25 66 -39 66 -34
0 -80 22 -86 40 -21 66 102 104 173 54 27 -18 28 -41 5 -67 -17 -18 -17 -20
12 -44 17 -14 59 -39 95 -56 82 -40 172 -44 235 -11 56 29 95 96 102 173 l6
61 -29 0 c-69 0 -102 71 -47 101 31 17 109 17 141 0 26 -14 30 -56 7 -81 -15
-16 -12 -21 33 -58 193 -162 343 -125 413 101 12 37 20 69 18 70 -2 2 -21 10
-41 20 -49 22 -60 58 -28 92 42 44 131 52 194 16z m611 -870 c508 -29 778 -52
814 -71 131 -67 163 -243 63 -346 -69 -72 -41 -69 -704 -72 l-598 -3 0 -364 0
-365 -50 0 -50 0 0 420 0 420 628 0 c705 0 679 -3 715 72 16 32 17 43 7 73 -6
19 -23 44 -37 55 -25 20 -37 20 -1409 20 l-1384 0 -65 -25 c-215 -80 -325
-243 -325 -479 0 -189 81 -328 234 -400 104 -49 164 -56 518 -56 286 0 322 2
379 20 137 42 263 144 320 259 18 36 34 67 34 68 4 8 95 -31 95 -40 -1 -20
-37 -94 -68 -140 -88 -127 -248 -233 -402 -267 -39 -8 -156 -11 -405 -8 -384
5 -405 8 -533 71 -74 36 -163 118 -204 187 -50 86 -73 183 -72 310 1 194 47
313 169 435 79 80 191 141 308 169 88 21 300 42 562 56 116 6 233 12 260 14
98 7 1013 -3 1200 -13z"/>
<path d="M1963 2497 c-56 -42 -61 -60 -30 -105 32 -47 83 -102 95 -102 25 0
137 134 129 154 -10 25 -100 85 -127 86 -14 0 -44 -15 -67 -33z"/>
<path d="M1568 2438 c-9 -7 -23 -25 -33 -40 l-16 -27 58 -45 c32 -25 62 -45
68 -43 13 5 42 55 50 89 6 24 2 29 -44 52 -58 30 -62 30 -83 14z"/>
<path d="M2442 2424 c-30 -15 -52 -33 -52 -42 0 -25 40 -102 54 -102 26 0 116
75 116 96 0 14 -48 74 -59 74 -4 0 -30 -12 -59 -26z"/>
</g>
</svg>
